<mxfile host="65bd71144e">
    <diagram id="EVTvMuGbah80TE0Cup9H" name="Page-1">
        <mxGraphModel dx="1196" dy="608" grid="0" gridSize="10" guides="1" tooltips="1" connect="1" arrows="1" fold="1" page="1" pageScale="1" pageWidth="850" pageHeight="1100" math="0" shadow="0">
            <root>
                <mxCell id="0"/>
                <mxCell id="1" parent="0"/>
                <mxCell id="181" value="" style="rounded=1;whiteSpace=wrap;html=1;dashed=1;labelBackgroundColor=none;strokeWidth=2;fontSize=16;fillColor=none;" vertex="1" parent="1">
                    <mxGeometry x="120" y="62.5" width="400" height="117.5" as="geometry"/>
                </mxCell>
                <mxCell id="102" value="" style="shape=or;whiteSpace=wrap;html=1;strokeWidth=3;" parent="1" vertex="1">
                    <mxGeometry x="137" y="85" width="60" height="80" as="geometry"/>
                </mxCell>
                <mxCell id="103" value="" style="verticalLabelPosition=bottom;shadow=0;dashed=0;align=center;html=1;verticalAlign=top;shape=mxgraph.electrical.logic_gates.inverter_2;strokeWidth=3;" parent="1" vertex="1">
                    <mxGeometry x="216" y="95" width="100" height="60" as="geometry"/>
                </mxCell>
                <mxCell id="115" style="edgeStyle=none;html=1;endArrow=none;endFill=0;strokeWidth=3;entryX=0;entryY=0.25;entryDx=0;entryDy=0;entryPerimeter=0;" parent="1" target="102" edge="1">
                    <mxGeometry relative="1" as="geometry">
                        <mxPoint x="20" y="180" as="sourcePoint"/>
                        <mxPoint x="559" y="265" as="targetPoint"/>
                        <Array as="points">
                            <mxPoint x="80" y="180"/>
                            <mxPoint x="80" y="105"/>
                        </Array>
                    </mxGeometry>
                </mxCell>
                <mxCell id="139" value="&lt;font style=&quot;font-size: 14px;&quot;&gt;LUT-A&lt;/font&gt;" style="text;strokeColor=none;fillColor=none;html=1;fontSize=14;fontStyle=1;verticalAlign=middle;align=center;" vertex="1" parent="1">
                    <mxGeometry x="137" y="109.75" width="50" height="30.5" as="geometry"/>
                </mxCell>
                <mxCell id="146" value="&lt;b&gt;&lt;font style=&quot;font-size: 16px;&quot;&gt;Slice 1&lt;/font&gt;&lt;/b&gt;" style="text;html=1;strokeColor=none;fillColor=none;align=center;verticalAlign=middle;whiteSpace=wrap;rounded=0;labelBackgroundColor=none;fontSize=14;" vertex="1" parent="1">
                    <mxGeometry x="290" y="58.5" width="60" height="30" as="geometry"/>
                </mxCell>
                <mxCell id="163" value="" style="shape=or;whiteSpace=wrap;html=1;strokeWidth=3;direction=west;" vertex="1" parent="1">
                    <mxGeometry x="440" y="220" width="60" height="80" as="geometry"/>
                </mxCell>
                <mxCell id="167" value="" style="verticalLabelPosition=bottom;shadow=0;dashed=0;align=center;html=1;verticalAlign=top;shape=mxgraph.electrical.logic_gates.inverter_2;strokeWidth=3;" vertex="1" parent="1">
                    <mxGeometry x="316" y="95" width="100" height="60" as="geometry"/>
                </mxCell>
                <mxCell id="168" value="" style="verticalLabelPosition=bottom;shadow=0;dashed=0;align=center;html=1;verticalAlign=top;shape=mxgraph.electrical.logic_gates.inverter_2;strokeWidth=3;" vertex="1" parent="1">
                    <mxGeometry x="416" y="95" width="100" height="60" as="geometry"/>
                </mxCell>
                <mxCell id="169" value="" style="verticalLabelPosition=bottom;shadow=0;dashed=0;align=center;html=1;verticalAlign=top;shape=mxgraph.electrical.logic_gates.inverter_2;strokeWidth=3;direction=west;" vertex="1" parent="1">
                    <mxGeometry x="118" y="230" width="100" height="60" as="geometry"/>
                </mxCell>
                <mxCell id="170" value="" style="verticalLabelPosition=bottom;shadow=0;dashed=0;align=center;html=1;verticalAlign=top;shape=mxgraph.electrical.logic_gates.inverter_2;strokeWidth=3;direction=west;" vertex="1" parent="1">
                    <mxGeometry x="218" y="230" width="100" height="60" as="geometry"/>
                </mxCell>
                <mxCell id="171" value="" style="verticalLabelPosition=bottom;shadow=0;dashed=0;align=center;html=1;verticalAlign=top;shape=mxgraph.electrical.logic_gates.inverter_2;strokeWidth=3;direction=west;" vertex="1" parent="1">
                    <mxGeometry x="318" y="230" width="100" height="60" as="geometry"/>
                </mxCell>
                <mxCell id="173" style="edgeStyle=none;html=1;endArrow=none;endFill=0;strokeWidth=3;entryX=1;entryY=0.5;entryDx=0;entryDy=0;entryPerimeter=0;exitX=0;exitY=0.5;exitDx=0;exitDy=0;exitPerimeter=0;" edge="1" parent="1" source="171" target="163">
                    <mxGeometry relative="1" as="geometry">
                        <mxPoint x="30" y="189" as="sourcePoint"/>
                        <mxPoint x="147" y="114" as="targetPoint"/>
                        <Array as="points"/>
                    </mxGeometry>
                </mxCell>
                <mxCell id="176" value="" style="endArrow=none;html=1;fontSize=16;strokeWidth=3;exitX=1;exitY=0.5;exitDx=0;exitDy=0;exitPerimeter=0;entryX=0;entryY=0.75;entryDx=0;entryDy=0;entryPerimeter=0;" edge="1" parent="1" source="169" target="102">
                    <mxGeometry width="50" height="50" relative="1" as="geometry">
                        <mxPoint x="280" y="240" as="sourcePoint"/>
                        <mxPoint x="330" y="190" as="targetPoint"/>
                        <Array as="points">
                            <mxPoint x="100" y="260"/>
                            <mxPoint x="100" y="145"/>
                        </Array>
                    </mxGeometry>
                </mxCell>
                <mxCell id="177" value="" style="endArrow=none;html=1;fontSize=16;strokeWidth=3;exitX=0;exitY=0.75;exitDx=0;exitDy=0;exitPerimeter=0;entryX=1;entryY=0.5;entryDx=0;entryDy=0;entryPerimeter=0;" edge="1" parent="1" source="163" target="168">
                    <mxGeometry width="50" height="50" relative="1" as="geometry">
                        <mxPoint x="128" y="330" as="sourcePoint"/>
                        <mxPoint x="147" y="155" as="targetPoint"/>
                        <Array as="points">
                            <mxPoint x="540" y="240"/>
                            <mxPoint x="540" y="125"/>
                        </Array>
                    </mxGeometry>
                </mxCell>
                <mxCell id="178" style="edgeStyle=none;html=1;endArrow=none;endFill=0;strokeWidth=3;exitX=1;exitY=0.5;exitDx=0;exitDy=0;exitPerimeter=0;" edge="1" parent="1" source="102" target="103">
                    <mxGeometry relative="1" as="geometry">
                        <mxPoint x="310" y="220" as="sourcePoint"/>
                        <mxPoint x="332" y="220" as="targetPoint"/>
                        <Array as="points"/>
                    </mxGeometry>
                </mxCell>
                <mxCell id="179" style="edgeStyle=none;html=1;endArrow=none;endFill=0;strokeWidth=3;entryX=0;entryY=0.25;entryDx=0;entryDy=0;entryPerimeter=0;" edge="1" parent="1" target="163">
                    <mxGeometry relative="1" as="geometry">
                        <mxPoint x="20" y="180" as="sourcePoint"/>
                        <mxPoint x="147" y="115" as="targetPoint"/>
                        <Array as="points">
                            <mxPoint x="80" y="180"/>
                            <mxPoint x="80" y="320"/>
                            <mxPoint x="540" y="320"/>
                            <mxPoint x="540" y="280"/>
                        </Array>
                    </mxGeometry>
                </mxCell>
                <mxCell id="180" style="edgeStyle=none;html=1;endArrow=none;endFill=0;strokeWidth=3;entryX=1;entryY=0.5;entryDx=0;entryDy=0;entryPerimeter=0;exitX=0;exitY=0.5;exitDx=0;exitDy=0;exitPerimeter=0;" edge="1" parent="1">
                    <mxGeometry relative="1" as="geometry">
                        <mxPoint x="540" y="186" as="sourcePoint"/>
                        <mxPoint x="562" y="186" as="targetPoint"/>
                        <Array as="points"/>
                    </mxGeometry>
                </mxCell>
                <mxCell id="182" value="" style="rounded=1;whiteSpace=wrap;html=1;dashed=1;labelBackgroundColor=none;strokeWidth=2;fontSize=16;fillColor=none;" vertex="1" parent="1">
                    <mxGeometry x="120" y="192.5" width="400" height="117.5" as="geometry"/>
                </mxCell>
                <mxCell id="183" value="&lt;b&gt;&lt;font style=&quot;font-size: 16px;&quot;&gt;Slice 2&lt;/font&gt;&lt;/b&gt;" style="text;html=1;strokeColor=none;fillColor=none;align=center;verticalAlign=middle;whiteSpace=wrap;rounded=0;labelBackgroundColor=none;fontSize=14;" vertex="1" parent="1">
                    <mxGeometry x="290" y="190" width="60" height="30" as="geometry"/>
                </mxCell>
                <mxCell id="184" value="&lt;font style=&quot;font-size: 14px;&quot;&gt;LUT-A&lt;/font&gt;" style="text;strokeColor=none;fillColor=none;html=1;fontSize=14;fontStyle=1;verticalAlign=middle;align=center;" vertex="1" parent="1">
                    <mxGeometry x="445" y="244.75" width="50" height="30.5" as="geometry"/>
                </mxCell>
                <mxCell id="185" value="&lt;font style=&quot;font-size: 14px;&quot;&gt;LUT-B&lt;/font&gt;" style="text;strokeColor=none;fillColor=none;html=1;fontSize=14;fontStyle=1;verticalAlign=middle;align=center;" vertex="1" parent="1">
                    <mxGeometry x="232" y="109.75" width="50" height="30.5" as="geometry"/>
                </mxCell>
                <mxCell id="186" value="&lt;font style=&quot;font-size: 14px;&quot;&gt;LUT-B&lt;/font&gt;" style="text;strokeColor=none;fillColor=none;html=1;fontSize=14;fontStyle=1;verticalAlign=middle;align=center;" vertex="1" parent="1">
                    <mxGeometry x="350" y="244.75" width="50" height="30.5" as="geometry"/>
                </mxCell>
                <mxCell id="187" value="&lt;font style=&quot;font-size: 14px;&quot;&gt;LUT-C&lt;/font&gt;" style="text;strokeColor=none;fillColor=none;html=1;fontSize=14;fontStyle=1;verticalAlign=middle;align=center;" vertex="1" parent="1">
                    <mxGeometry x="250" y="244.75" width="50" height="30.5" as="geometry"/>
                </mxCell>
                <mxCell id="188" value="&lt;font style=&quot;font-size: 14px;&quot;&gt;LUT-C&lt;/font&gt;" style="text;strokeColor=none;fillColor=none;html=1;fontSize=14;fontStyle=1;verticalAlign=middle;align=center;" vertex="1" parent="1">
                    <mxGeometry x="330" y="109.75" width="50" height="30.5" as="geometry"/>
                </mxCell>
                <mxCell id="189" value="&lt;font style=&quot;font-size: 14px;&quot;&gt;LUT-D&lt;/font&gt;" style="text;strokeColor=none;fillColor=none;html=1;fontSize=14;fontStyle=1;verticalAlign=middle;align=center;" vertex="1" parent="1">
                    <mxGeometry x="430" y="109.75" width="50" height="30.5" as="geometry"/>
                </mxCell>
                <mxCell id="190" value="&lt;font style=&quot;font-size: 14px;&quot;&gt;LUT-D&lt;/font&gt;" style="text;strokeColor=none;fillColor=none;html=1;fontSize=14;fontStyle=1;verticalAlign=middle;align=center;" vertex="1" parent="1">
                    <mxGeometry x="150" y="244.75" width="50" height="30.5" as="geometry"/>
                </mxCell>
            </root>
        </mxGraphModel>
    </diagram>
</mxfile>